<svg width="22" height="22" viewBox="0 0 22 22" fill="none" xmlns="http://www.w3.org/2000/svg">
<path fill-rule="evenodd" clip-rule="evenodd" d="M10.258 13.5911C10.4549 13.7576 10.7217 13.8511 11 13.8511C11.2783 13.8511 11.5451 13.7576 11.742 13.5911L16.992 9.14667C17.1775 8.97816 17.2784 8.75529 17.2736 8.52501C17.2688 8.29473 17.1586 8.07501 16.9663 7.91215C16.7739 7.74929 16.5144 7.656 16.2423 7.65194C15.9703 7.64788 15.707 7.73336 15.508 7.89037L12.05 10.8178V2.88889C12.05 2.65314 11.9394 2.42705 11.7425 2.26035C11.5455 2.09365 11.2785 2 11 2C10.7215 2 10.4545 2.09365 10.2575 2.26035C10.0606 2.42705 9.95 2.65314 9.95 2.88889V10.8178L6.492 7.89037C6.29296 7.73336 6.02969 7.64788 5.75767 7.65194C5.48565 7.656 5.22611 7.74929 5.03373 7.91215C4.84135 8.07501 4.73115 8.29473 4.72636 8.52501C4.72156 8.75529 4.82253 8.97816 5.008 9.14667L10.258 13.5911ZM5.05 16.2222C4.77152 16.2222 4.50445 16.3159 4.30754 16.4826C4.11062 16.6493 4 16.8754 4 17.1111C4 17.3469 4.11062 17.573 4.30754 17.7396C4.50445 17.9063 4.77152 18 5.05 18H16.95C17.2285 18 17.4955 17.9063 17.6925 17.7396C17.8894 17.573 18 17.3469 18 17.1111C18 16.8754 17.8894 16.6493 17.6925 16.4826C17.4955 16.3159 17.2285 16.2222 16.95 16.2222H5.05Z" fill="black"/>
</svg>
